<?xml version="1.0" standalone="no"?>
<!DOCTYPE svg PUBLIC "-//W3C//DTD SVG 20010904//EN"
 "http://www.w3.org/TR/2001/REC-SVG-20010904/DTD/svg10.dtd">
<svg version="1.0" xmlns="http://www.w3.org/2000/svg"
 width="640.000000pt" height="320.000000pt" viewBox="0 0 640.000000 320.000000"
 preserveAspectRatio="xMidYMid meet">
<metadata>
Created by potrace 1.16, written by Peter Selinger 2001-2019
</metadata>
<g transform="translate(0.000000,320.000000) scale(0.100000,-0.100000)"
fill="#000000" stroke="none">
<path d="M0 1600 l0 -1600 1400 0 1400 0 0 50 0 50 50 0 50 0 0 50 0 50 50 0
50 0 0 50 0 50 50 0 50 0 0 50 0 50 50 0 50 0 0 -50 0 -50 50 0 50 0 0 -50 0
-50 50 0 50 0 0 -50 0 -50 50 0 50 0 0 -50 0 -50 1450 0 1450 0 0 1600 0 1600
-3200 0 -3200 0 0 -1600z m1600 950 l0 -50 50 0 50 0 0 -50 0 -50 50 0 50 0 0
-200 0 -200 -50 0 -50 0 0 100 0 100 -100 0 -100 0 0 -100 0 -100 -100 0 -100
0 0 100 0 100 -100 0 -100 0 0 -100 0 -100 -50 0 -50 0 0 200 0 200 50 0 50 0
0 50 0 50 50 0 50 0 0 50 0 50 200 0 200 0 0 -50z m1200 0 l0 -50 50 0 50 0 0
-50 0 -50 50 0 50 0 0 -200 0 -200 -50 0 -50 0 0 100 0 100 -100 0 -100 0 0
-100 0 -100 -100 0 -100 0 0 100 0 100 -100 0 -100 0 0 -100 0 -100 -50 0 -50
0 0 200 0 200 50 0 50 0 0 50 0 50 50 0 50 0 0 50 0 50 200 0 200 0 0 -50z
m1200 0 l0 -50 50 0 50 0 0 -50 0 -50 50 0 50 0 0 -200 0 -200 -50 0 -50 0 0
100 0 100 -100 0 -100 0 0 -100 0 -100 -100 0 -100 0 0 100 0 100 -100 0 -100
0 0 -100 0 -100 -50 0 -50 0 0 200 0 200 50 0 50 0 0 50 0 50 50 0 50 0 0 50
0 50 200 0 200 0 0 -50z m1200 0 l0 -50 50 0 50 0 0 -50 0 -50 50 0 50 0 0
-200 0 -200 -50 0 -50 0 0 100 0 100 -100 0 -100 0 0 -100 0 -100 -100 0 -100
0 0 100 0 100 -100 0 -100 0 0 -100 0 -100 -50 0 -50 0 0 200 0 200 50 0 50 0
0 50 0 50 50 0 50 0 0 50 0 50 200 0 200 0 0 -50z"/>
</g>
</svg>
