<?xml version="1.0" standalone="no"?>
<!DOCTYPE svg PUBLIC "-//W3C//DTD SVG 20010904//EN"
 "http://www.w3.org/TR/2001/REC-SVG-20010904/DTD/svg10.dtd">
<svg version="1.0" xmlns="http://www.w3.org/2000/svg"
 width="640.000000pt" height="320.000000pt" viewBox="0 0 640.000000 320.000000"
 preserveAspectRatio="xMidYMid meet">
<metadata>
Created by potrace 1.16, written by Peter Selinger 2001-2019
</metadata>
<g transform="translate(0.000000,320.000000) scale(0.100000,-0.100000)"
fill="#000000" stroke="none">
<path d="M0 1650 l0 -1550 200 0 200 0 0 100 0 100 -100 0 -100 0 0 500 0 500
3000 0 3000 0 0 -500 0 -500 -100 0 -100 0 0 -100 0 -100 200 0 200 0 0 1550
0 1550 -3200 0 -3200 0 0 -1550z m2200 1400 l0 -50 -250 0 -250 0 0 50 0 50
250 0 250 0 0 -50z m600 -200 l0 -250 -200 0 -200 0 0 -100 0 -100 -50 0 -50
0 0 250 0 250 50 0 50 0 0 -50 0 -50 150 0 150 0 0 100 0 100 -200 0 -200 0 0
50 0 50 250 0 250 0 0 -250z m700 -100 l0 -350 -50 0 -50 0 0 100 0 100 -200
0 -200 0 0 -100 0 -100 -50 0 -50 0 0 250 0 250 50 0 50 0 0 -50 0 -50 200 0
200 0 0 100 0 100 -250 0 -250 0 0 50 0 50 300 0 300 0 0 -350z m600 300 l0
-50 -250 0 -250 0 0 50 0 50 250 0 250 0 0 -50z m600 0 l0 -50 -250 0 -250 0
0 50 0 50 250 0 250 0 0 -50z m-3200 -100 l0 -50 -700 0 -700 0 0 50 0 50 700
0 700 0 0 -50z m4800 0 l0 -50 -700 0 -700 0 0 50 0 50 700 0 700 0 0 -50z
m-4500 -100 l0 -50 200 0 200 0 0 -200 0 -200 -250 0 -250 0 0 100 0 100 200
0 200 0 0 50 0 50 -200 0 -200 0 0 100 0 100 50 0 50 0 0 -50z m1900 -100 l0
-150 200 0 200 0 0 -100 0 -100 -250 0 -250 0 0 250 0 250 50 0 50 0 0 -150z
m600 100 l0 -50 50 0 50 0 0 -50 0 -50 -50 0 -50 0 0 -50 0 -50 200 0 200 0 0
-100 0 -100 -250 0 -250 0 0 250 0 250 50 0 50 0 0 -50z m-2900 -100 l0 -50
-600 0 -600 0 0 50 0 50 600 0 600 0 0 -50z m4800 0 l0 -50 -600 0 -600 0 0
50 0 50 600 0 600 0 0 -50z m-4700 -200 l0 -50 -700 0 -700 0 0 50 0 50 700 0
700 0 0 -50z m4800 0 l0 -50 -700 0 -700 0 0 50 0 50 700 0 700 0 0 -50z
m-5500 -700 l0 -350 -100 0 -100 0 0 200 0 200 50 0 50 0 0 150 0 150 50 0 50
0 0 -350z m700 0 l0 -350 -50 0 -50 0 0 300 0 300 -200 0 -200 0 0 -100 0
-100 50 0 50 0 0 -200 0 -200 -100 0 -100 0 0 350 0 350 300 0 300 0 0 -350z
m300 150 l0 -200 50 0 50 0 0 -100 0 -100 50 0 50 0 0 100 0 100 50 0 50 0 0
100 0 100 50 0 50 0 0 100 0 100 50 0 50 0 0 -150 0 -150 -50 0 -50 0 0 -100
0 -100 -50 0 -50 0 0 -100 0 -100 -150 0 -150 0 0 100 0 100 -50 0 -50 0 0
100 0 100 -50 0 -50 0 0 150 0 150 100 0 100 0 0 -200z m1200 100 l0 -100 50
0 50 0 0 -250 0 -250 -50 0 -50 0 0 200 0 200 -200 0 -200 0 0 -200 0 -200
-100 0 -100 0 0 250 0 250 50 0 50 0 0 100 0 100 250 0 250 0 0 -100z m700 50
l0 -50 50 0 50 0 0 -250 0 -250 -50 0 -50 0 0 -50 0 -50 -250 0 -250 0 0 350
0 350 250 0 250 0 0 -50z m700 0 l0 -50 -200 0 -200 0 0 -50 0 -50 150 0 150
0 0 -50 0 -50 -100 0 -100 0 0 -150 0 -150 150 0 150 0 0 -50 0 -50 -250 0
-250 0 0 350 0 350 250 0 250 0 0 -50z m700 -100 l0 -150 -150 0 -150 0 0 -50
0 -50 150 0 150 0 0 -150 0 -150 -100 0 -100 0 0 100 0 100 -100 0 -100 0 0
100 0 100 -50 0 -50 0 0 -200 0 -200 -50 0 -50 0 0 350 0 350 300 0 300 0 0
-150z m700 100 l0 -50 -250 0 -250 0 0 -50 0 -50 250 0 250 0 0 -250 0 -250
-300 0 -300 0 0 50 0 50 200 0 200 0 0 150 0 150 -200 0 -200 0 0 150 0 150
300 0 300 0 0 -50z"/>
<path d="M2600 2050 l0 -50 150 0 150 0 0 50 0 50 -150 0 -150 0 0 -50z"/>
<path d="M3300 2050 l0 -50 50 0 50 0 0 -200 0 -200 150 0 150 0 0 250 0 250
-200 0 -200 0 0 -50z"/>
<path d="M4600 2050 l0 -50 200 0 200 0 0 50 0 50 -200 0 -200 0 0 -50z"/>
<path d="M300 800 l0 -400 2900 0 2900 0 0 400 0 400 -2900 0 -2900 0 0 -400z
m700 250 l0 -50 50 0 50 0 0 -200 0 -200 -50 0 -50 0 0 -50 0 -50 -300 0 -300
0 0 300 0 300 300 0 300 0 0 -50z m800 -50 l0 -100 50 0 50 0 0 -200 0 -200
-100 0 -100 0 0 150 0 150 -200 0 -200 0 0 -150 0 -150 -50 0 -50 0 0 200 0
200 50 0 50 0 0 100 0 100 250 0 250 0 0 -100z m300 -50 l0 -150 100 0 100 0
0 -50 0 -50 50 0 50 0 0 50 0 50 100 0 100 0 0 150 0 150 50 0 50 0 0 -200 0
-200 -100 0 -100 0 0 -50 0 -50 -50 0 -50 0 0 -50 0 -50 -50 0 -50 0 0 50 0
50 -50 0 -50 0 0 50 0 50 -100 0 -100 0 0 200 0 200 50 0 50 0 0 -150z m1100
-150 l0 -300 -50 0 -50 0 0 300 0 300 50 0 50 0 0 -300z m1000 250 l0 -50 50
0 50 0 0 -200 0 -200 -50 0 -50 0 0 -50 0 -50 -300 0 -300 0 0 300 0 300 300
0 300 0 0 -50z m1100 -200 l0 -250 100 0 100 0 0 150 0 150 50 0 50 0 0 -150
0 -150 100 0 100 0 0 100 0 100 -50 0 -50 0 0 150 0 150 100 0 100 0 0 -300 0
-300 -150 0 -150 0 0 50 0 50 -50 0 -50 0 0 -50 0 -50 -150 0 -150 0 0 300 0
300 50 0 50 0 0 -250z"/>
<path d="M500 950 l0 -50 50 0 50 0 0 -150 0 -150 200 0 200 0 0 200 0 200
-250 0 -250 0 0 -50z"/>
<path d="M1400 950 l0 -50 150 0 150 0 0 50 0 50 -150 0 -150 0 0 -50z"/>
<path d="M3700 950 l0 -50 50 0 50 0 0 -150 0 -150 200 0 200 0 0 200 0 200
-250 0 -250 0 0 -50z"/>
<path d="M500 200 l0 -100 2700 0 2700 0 0 100 0 100 -2700 0 -2700 0 0 -100z"/>
</g>
</svg>
